<?xml version="1.0" standalone="no"?>
<!DOCTYPE svg PUBLIC "-//W3C//DTD SVG 20010904//EN"
 "http://www.w3.org/TR/2001/REC-SVG-20010904/DTD/svg10.dtd">
<svg version="1.0" xmlns="http://www.w3.org/2000/svg"
 width="512.000000pt" height="512.000000pt" viewBox="0 0 512.000000 512.000000"
 preserveAspectRatio="xMidYMid meet">
<metadata>
Created by potrace 1.14, written by Peter Selinger 2001-2017
</metadata>
<g transform="translate(0.000000,512.000000) scale(0.100000,-0.100000)"
fill="#000000" stroke="none">
<path d="M2354 4283 c5 -9 -1 -13 -18 -14 -34 -2 -38 -3 -61 -16 -11 -6 -24
-12 -30 -13 -28 -6 -55 -21 -55 -30 0 -5 -10 -10 -22 -10 -12 0 -18 -3 -15 -6
4 -4 -13 -19 -36 -34 -50 -32 -157 -148 -157 -171 0 -5 -4 -7 -10 -4 -6 3 -7
-1 -4 -9 3 -9 1 -16 -5 -16 -6 0 -11 -9 -11 -21 0 -11 -4 -17 -10 -14 -5 3
-10 -3 -10 -14 0 -12 -5 -21 -11 -21 -5 0 -8 -4 -4 -9 3 -5 -2 -16 -11 -25 -8
-9 -13 -20 -9 -25 3 -5 1 -12 -4 -15 -9 -6 -22 -60 -26 -103 -1 -12 -8 -30
-16 -40 -9 -11 -10 -14 -1 -9 6 4 12 2 12 -3 0 -6 -4 -11 -9 -11 -12 0 -7
-136 6 -152 5 -7 9 -25 8 -40 -1 -16 1 -28 5 -28 4 0 10 -11 12 -25 3 -14 2
-25 -1 -25 -11 0 -71 -58 -71 -68 0 -6 -7 -12 -15 -16 -8 -3 -15 -13 -15 -21
0 -9 -4 -13 -10 -10 -5 3 -10 2 -10 -4 0 -6 -11 -21 -25 -35 -14 -14 -25 -32
-25 -41 0 -8 -5 -15 -12 -15 -6 0 -9 -3 -6 -6 4 -3 -2 -14 -13 -25 -10 -10
-19 -26 -19 -34 0 -8 -4 -15 -10 -15 -5 0 -10 -9 -10 -21 0 -11 -4 -18 -9 -14
-6 3 -8 -4 -6 -15 2 -12 -1 -20 -9 -20 -8 0 -17 -15 -21 -32 -8 -36 -11 -45
-15 -53 -3 -7 -7 -22 -9 -36 0 -5 -5 -8 -10 -5 -4 3 -8 -5 -7 -17 1 -12 -2
-24 -6 -27 -4 -3 -8 -20 -10 -38 -1 -18 -5 -32 -9 -32 -6 0 -21 -78 -24 -120
0 -8 -4 -21 -9 -29 -7 -11 -6 -12 5 -6 12 7 12 6 1 -7 -7 -9 -13 -45 -13 -84
-1 -38 -4 -73 -7 -79 -4 -5 -8 -19 -9 -30 -3 -17 -1 -18 8 -5 9 13 10 12 5 -2
-3 -10 -9 -25 -13 -35 -4 -10 -2 -14 4 -10 5 3 10 0 10 -8 0 -8 -4 -12 -9 -9
-13 8 -10 -10 5 -25 9 -11 9 -13 0 -7 -7 4 -13 2 -13 -3 0 -6 6 -11 13 -11 8
0 7 -4 -3 -10 -8 -5 -10 -10 -4 -10 7 0 12 -29 13 -77 1 -43 6 -80 10 -83 5
-3 8 -22 7 -42 -2 -21 1 -38 4 -38 7 0 8 -8 11 -55 1 -13 5 -22 10 -19 5 3 9
-4 9 -15 0 -11 5 -23 11 -26 6 -4 8 -13 5 -21 -3 -8 1 -17 9 -20 7 -3 11 -12
8 -20 -3 -8 -1 -14 4 -14 5 0 15 -16 22 -35 7 -19 17 -35 22 -35 5 0 9 -7 9
-15 0 -8 9 -23 20 -32 11 -10 20 -22 20 -28 0 -6 9 -16 20 -23 11 -7 20 -19
20 -27 0 -8 4 -15 9 -15 5 0 25 -15 44 -34 20 -19 38 -32 41 -28 3 3 6 0 6 -6
0 -7 9 -12 20 -12 11 0 20 -5 20 -11 0 -6 6 -9 14 -6 8 3 17 -1 20 -9 3 -9 9
-13 14 -10 4 2 17 -3 29 -12 17 -13 22 -29 24 -72 2 -30 7 -58 13 -62 8 -5 7
-8 -1 -8 -9 0 -10 -7 -4 -23 5 -13 5 -30 1 -37 -5 -9 -4 -20 2 -27 7 -9 7 -17
-2 -28 -7 -8 -8 -15 -3 -15 5 0 9 -9 10 -20 1 -11 -2 -18 -8 -15 -5 4 -6 -3
-1 -17 10 -27 9 -39 -1 -55 -5 -7 -4 -13 0 -13 5 0 9 -9 10 -20 1 -13 -2 -18
-9 -14 -6 4 -8 3 -5 -3 12 -19 16 -63 5 -63 -10 0 -115 -84 -128 -102 -4 -4
-23 -9 -43 -10 -20 -2 -37 -6 -37 -10 0 -4 -11 -5 -25 -2 -16 3 -25 0 -25 -8
0 -9 -3 -8 -10 2 -9 13 -10 13 -10 0 0 -9 -8 -16 -17 -17 -49 -4 -103 -17
-103 -24 0 -5 -9 -9 -20 -9 -11 0 -20 -4 -20 -10 0 -5 -7 -7 -15 -4 -8 4 -15
2 -15 -3 0 -5 -7 -10 -15 -11 -8 -1 -22 -3 -30 -4 -8 -1 -12 -5 -10 -9 3 -4
-6 -10 -20 -13 -14 -4 -25 -11 -25 -16 0 -6 -8 -10 -18 -10 -10 0 -24 -9 -32
-19 -7 -11 -17 -18 -20 -16 -4 3 -15 -4 -25 -15 -10 -11 -22 -17 -27 -14 -4 3
-7 0 -6 -7 2 -7 -4 -14 -12 -14 -8 0 -14 -6 -13 -12 2 -7 -6 -15 -17 -18 -11
-4 -20 -13 -20 -21 0 -8 -4 -13 -9 -9 -6 3 -15 -4 -21 -16 -7 -11 -14 -18 -17
-16 -6 7 -43 -30 -43 -44 0 -5 -4 -7 -10 -4 -5 3 -10 0 -10 -7 0 -7 -12 -24
-25 -37 -14 -12 -22 -28 -18 -34 3 -6 1 -7 -5 -3 -7 4 -18 -7 -28 -26 -9 -18
-24 -38 -32 -44 -8 -6 -12 -16 -8 -22 4 -7 2 -12 -3 -12 -6 0 -11 -8 -11 -17
0 -9 -3 -13 -7 -9 -4 3 -12 -8 -18 -26 -6 -18 -16 -32 -21 -31 -6 1 -10 -8 -9
-20 1 -12 -2 -27 -7 -33 -8 -12 -17 -43 -21 -74 -1 -8 -7 -21 -14 -27 -6 -7
-9 -22 -6 -33 3 -11 0 -20 -6 -20 -6 0 -11 -5 -11 -11 0 -5 6 -7 12 -3 10 6
10 4 0 -7 -6 -7 -12 -21 -12 -31 0 -17 83 -18 2048 -18 l2048 0 -2 113 c-2 61
-5 130 -8 152 -3 22 -5 56 -6 75 0 26 -3 31 -10 20 -6 -9 -10 -10 -10 -3 0 6
5 15 11 19 8 4 7 9 -2 15 -11 7 -11 9 1 9 11 0 12 2 2 8 -7 5 -13 25 -14 45
-1 20 -4 35 -7 33 -3 -2 -6 18 -6 45 0 27 -4 49 -9 49 -4 0 -6 7 -2 15 3 8 0
15 -5 15 -6 0 -9 9 -6 20 3 10 1 20 -3 22 -5 2 -11 21 -14 43 -4 21 -14 48
-24 59 -9 11 -12 17 -6 13 13 -8 -24 72 -43 91 -7 7 -13 17 -13 21 0 4 -11 21
-25 37 -14 16 -25 33 -25 38 0 5 -3 7 -6 4 -3 -4 -14 1 -24 10 -10 9 -25 22
-32 27 -19 15 -84 45 -98 45 -6 0 -8 5 -4 11 4 7 1 10 -7 7 -8 -3 -30 0 -49 7
-19 7 -49 12 -67 11 -17 -1 -29 2 -27 6 3 4 -4 7 -13 7 -10 0 -81 0 -157 0
-84 1 -144 -3 -152 -9 -8 -8 -14 -8 -19 0 -3 6 -11 8 -16 4 -6 -3 -28 -7 -49
-9 -22 -2 -44 -6 -50 -10 -5 -3 -10 0 -10 7 0 9 -3 9 -10 -2 -8 -12 -10 -11
-10 6 0 24 -23 48 -35 36 -5 -4 -5 -2 -2 5 4 6 -5 21 -20 33 -16 12 -27 25
-25 28 1 4 -2 7 -7 7 -5 0 -21 10 -35 23 -15 12 -33 22 -41 22 -8 0 -15 5 -15
10 0 6 -9 10 -21 10 -11 0 -18 4 -15 8 3 5 0 9 -7 9 -7 0 -35 7 -64 16 -28 8
-54 13 -57 10 -3 -4 -6 -1 -6 6 0 9 -5 9 -20 1 -16 -8 -20 -8 -18 2 2 7 -2 12
-8 11 -5 -1 -27 2 -47 7 -26 5 -37 4 -37 -4 0 -8 -2 -8 -8 0 -4 7 -46 12 -106
13 -55 1 -104 5 -110 9 -15 9 -135 9 -130 0 2 -3 -39 -7 -91 -7 -52 0 -95 3
-96 7 0 4 -1 34 -3 67 -1 34 -6 66 -10 73 -4 7 -2 12 3 12 6 0 11 7 11 15 0 8
5 15 11 15 5 0 7 5 4 10 -3 6 -1 10 5 10 6 0 8 5 4 12 -5 8 -2 9 9 5 10 -3 17
-2 17 3 0 6 9 10 19 10 11 0 23 5 26 10 4 6 11 8 16 5 5 -4 9 1 9 9 0 10 6 13
15 10 8 -4 15 -1 15 6 0 6 4 9 9 5 5 -3 16 1 23 9 8 7 27 21 43 30 52 28 69
40 87 60 10 10 18 17 18 13 0 -7 57 43 139 120 35 35 69 63 74 63 4 0 5 5 2
10 -3 5 -2 10 3 10 5 0 14 12 20 26 7 14 17 22 22 19 6 -4 9 -3 8 2 -4 15 13
53 22 48 7 -4 14 19 23 78 2 10 8 22 13 25 5 4 11 21 12 37 8 101 15 145 21
141 3 -2 6 31 6 75 0 43 3 79 6 79 4 0 10 7 13 16 5 12 2 15 -10 10 -13 -5
-14 -3 -6 6 6 7 11 16 11 21 1 4 2 10 2 15 6 30 2 209 -3 205 -5 -2 -8 0 -8 6
0 5 5 13 11 16 7 5 6 12 -3 23 -8 10 -13 37 -12 67 1 28 -1 55 -5 60 -4 6 -9
30 -10 55 -2 25 -6 52 -10 60 -4 8 -7 29 -7 46 1 19 -3 30 -10 27 -6 -2 -11 4
-11 14 1 31 -15 97 -29 119 -8 11 -15 32 -16 47 -1 15 -8 27 -15 27 -7 0 -10
7 -7 15 4 8 1 15 -5 15 -6 0 -11 7 -11 15 0 8 -9 24 -20 35 -11 11 -20 22 -21
25 -5 28 -13 44 -19 40 -5 -3 -11 4 -15 15 -3 11 -11 20 -16 20 -6 0 -7 5 -4
10 3 6 -1 10 -10 10 -8 0 -20 11 -27 25 -6 13 -14 22 -19 20 -4 -3 -15 5 -23
17 -9 12 -16 18 -16 13 0 -6 -4 -5 -8 1 -11 16 -114 64 -123 58 -5 -3 -9 0 -9
5 0 6 -11 11 -24 11 -13 0 -26 4 -28 10 -1 5 -18 10 -35 12 -18 1 -33 6 -33
11 0 5 -8 7 -19 4 -10 -2 -26 0 -35 5 -11 6 -16 5 -16 -4 -1 -9 -4 -9 -13 3
-8 9 -28 15 -55 15 -24 -1 -46 2 -49 7 -2 4 -12 3 -22 -2 -14 -8 -17 -5 -19
21 -1 17 3 37 9 44 9 11 8 14 -1 14 -10 0 -10 3 0 15 10 12 10 15 0 15 -10 0
-10 3 0 15 7 8 8 15 3 15 -11 0 -11 29 1 48 4 6 2 12 -3 12 -6 0 -11 16 -11
35 0 19 -4 43 -9 53 -11 21 -23 52 -27 72 -2 8 -8 16 -13 18 -6 2 -11 12 -11
23 0 10 -7 19 -15 19 -8 0 -15 6 -15 13 0 15 -47 67 -60 67 -6 0 -19 9 -30 20
-11 11 -29 20 -39 20 -11 0 -23 5 -27 11 -3 6 -17 9 -30 6 -13 -2 -24 0 -24 4
0 5 -3 8 -7 8 -5 -1 -10 0 -13 1 -18 7 -50 5 -50 -3 0 -5 -8 -3 -17 4 -11 10
-14 10 -9 2z"/>
</g>
</svg>
